# xmcd
#
# Track frame offsets:
#	150
#	29124
#	49147
#	70697
#	87870
#	103387
#	127679
#	149852
#	182047
#	200627
#	218435
#	236585
#	251606
#	270852
#	290212
#	308418
#	325078
#
# Disc length: 4598 seconds
#
# Revision: 0
# Processed by: cddbd v1.5.2PL0 Copyright (c) Steve Scherf et al.
# Submitted via: EasyCDDAExtractor 15.0.0.1
#
DISCID=fe11f411
DTITLE=Various Artist - 2011 Stepper Go 2 Work IX
DYEAR=2011
DGENRE=R&B
TTITLE0=Cardell - When  We Make Love
TTITLE1=Teddy Austin - Eye No
TTITLE2=Dexter Wansel - You Can Make It What You Wish
TTITLE3=P. Diddy w/Mary J Blige - Someone To Love (DJ Vell Ext.)
TTITLE4=Jenell - So Whass Up
TTITLE5=Marva Hicks - One Good Reason
TTITLE6=Dial Tone - Phone Tap
TTITLE7=Rick Ross Drake Chrisette Michelle - Aston Martin Music
TTITLE8=Chris Brown - No Bullshit
TTITLE9=Fantasia - I'm Doin' Me
TTITLE10=Anthony David - 4 Evermore
TTITLE11=R. Kelly - Just Like That
TTITLE12=Marzette Griffith - I
TTITLE13=Bruno Mars - Our First Time
TTITLE14=El  DeBarge - Serenading
TTITLE15=The Artist - Get Your Game On
TTITLE16=Wendell Scott - Camella'A Groove
EXTD=
EXTT0=
EXTT1=
EXTT2=
EXTT3=
EXTT4=
EXTT5=
EXTT6=
EXTT7=
EXTT8=
EXTT9=
EXTT10=
EXTT11=
EXTT12=
EXTT13=
EXTT14=
EXTT15=
EXTT16=
PLAYORDER=
